# xmcd
#
# Track frame offsets:
#	150
#	23724
#	44302
#	58796
#	77431
#	101722
#	120992
#	139825
#	156891
#	172141
#	191534
#	212449
#	238738
#	259245
#	281313
#	297999
#
# Disc length: 4256 seconds
#
# Revision: 0
# Processed by: cddbd v1.5.2PL0 Copyright (c) Steve Scherf et al.
# Submitted via: EasyCDDAExtractor 12.0.0.1
#
DISCID=e1109e10
DTITLE=Various Artist - 100% Rock Ballads CD2
DYEAR=1900
DGENRE=Ballad
TTITLE0=R.E.M - Everybody hurts
TTITLE1=U2 - One
TTITLE2=BRUCE SPRINGSTEEN - Streets of Philadelphia
TTITLE3=BILLY IDOL - Eyes without a face
TTITLE4=CHRIS REA - And you my love
TTITLE5=BRIAN FERRY and ROXY MUSIC - Slave to love
TTITLE6=TERENCE TRENT D'ARBY - Delicate
TTITLE7=ROBERT PLANT - Big log
TTITLE8=FREDDIE MERCURY - The great pretender
TTITLE9=WET WET WET - Love is all around
TTITLE10=STING, BRYAN ADAMS and ROD STEWART - All for love
TTITLE11=BRIAN ADAMS - Please forgive me
TTITLE12=JOE COCKER - Now that the magic has gone
TTITLE13=TOTO - I won't hold you back
TTITLE14=SANTANA - Love is you
TTITLE15=DIRE STRAITS - unknown
EXTD=
EXTT0=
EXTT1=
EXTT2=
EXTT3=
EXTT4=
EXTT5=
EXTT6=
EXTT7=
EXTT8=
EXTT9=
EXTT10=
EXTT11=
EXTT12=
EXTT13=
EXTT14=
EXTT15=
PLAYORDER=
